<svg width="19" height="19" viewBox="0 0 19 19" fill="none" xmlns="http://www.w3.org/2000/svg">
<path d="M16.625 4.73372C13.9888 4.47247 11.3367 4.33789 8.6925 4.33789C7.125 4.33789 5.5575 4.41706 3.99 4.57539L2.375 4.73372" stroke="#1F3D3D" stroke-linecap="round" stroke-linejoin="round"/>
<path d="M6.72852 3.93523L6.90268 2.89815C7.02935 2.14607 7.12435 1.58398 8.46227 1.58398H10.5364C11.8743 1.58398 11.9773 2.17773 12.096 2.90607L12.2702 3.93523" stroke="#1F3D3D" stroke-linecap="round" stroke-linejoin="round"/>
<path d="M14.922 7.23633L14.4074 15.2084C14.3203 16.4513 14.2491 17.4172 12.0403 17.4172H6.95784C4.74909 17.4172 4.67784 16.4513 4.59076 15.2084L4.07617 7.23633" stroke="#1F3D3D" stroke-linecap="round" stroke-linejoin="round"/>
<path d="M8.17773 13.0625H10.814" stroke="#1F3D3D" stroke-linecap="round" stroke-linejoin="round"/>
<path d="M7.52148 9.89648H11.4798" stroke="#1F3D3D" stroke-linecap="round" stroke-linejoin="round"/>
</svg>
