<svg width="22" height="22" viewBox="0 0 22 22"  xmlns="http://www.w3.org/2000/svg">
<path d="M7.67859 20.362H4.03177C2.21739 20.362 1.3418 19.5296 1.3418 17.8112V3.66993C1.3418 1.9515 2.22642 1.11914 4.03177 1.11914H7.67859C9.49297 1.11914 10.3686 1.9515 10.3686 3.66993V17.8112C10.3686 19.5296 9.48394 20.362 7.67859 20.362ZM4.03177 2.46166C2.88537 2.46166 2.69581 2.76597 2.69581 3.66993V17.8112C2.69581 18.7151 2.88537 19.0194 4.03177 19.0194H7.67859C8.82499 19.0194 9.01455 18.7151 9.01455 17.8112V3.66993C9.01455 2.76597 8.82499 2.46166 7.67859 2.46166H4.03177Z" />
<path d="M18.0555 12.3068H14.4087C12.5943 12.3068 11.7188 11.4745 11.7188 9.75603V3.66993C11.7188 1.9515 12.6034 1.11914 14.4087 1.11914H18.0555C19.8699 1.11914 20.7455 1.9515 20.7455 3.66993V9.75603C20.7455 11.4745 19.8609 12.3068 18.0555 12.3068ZM14.4087 2.46166C13.2623 2.46166 13.0728 2.76597 13.0728 3.66993V9.75603C13.0728 10.66 13.2623 10.9643 14.4087 10.9643H18.0555C19.2019 10.9643 19.3915 10.66 19.3915 9.75603V3.66993C19.3915 2.76597 19.2019 2.46166 18.0555 2.46166H14.4087Z" />
<path d="M18.0555 20.363H14.4087C12.5943 20.363 11.7188 19.5306 11.7188 17.8122V16.2012C11.7188 14.4828 12.6034 13.6504 14.4087 13.6504H18.0555C19.8699 13.6504 20.7455 14.4828 20.7455 16.2012V17.8122C20.7455 19.5306 19.8609 20.363 18.0555 20.363ZM14.4087 14.9929C13.2623 14.9929 13.0728 15.2972 13.0728 16.2012V17.8122C13.0728 18.7162 13.2623 19.0205 14.4087 19.0205H18.0555C19.2019 19.0205 19.3915 18.7162 19.3915 17.8122V16.2012C19.3915 15.2972 19.2019 14.9929 18.0555 14.9929H14.4087Z" />
</svg>
