<svg width="38" height="38" viewBox="0 0 38 38" fill="none" xmlns="http://www.w3.org/2000/svg">
<circle cx="19" cy="19" r="19" fill="#E5EFFE" fill-opacity="0.7"/>
<g clip-path="url(#clip0_949_2988)">
<path d="M18.9984 20.1922C20.4344 20.1922 21.5984 19.0281 21.5984 17.5922C21.5984 16.1562 20.4344 14.9922 18.9984 14.9922C17.5625 14.9922 16.3984 16.1562 16.3984 17.5922C16.3984 19.0281 17.5625 20.1922 18.9984 20.1922Z" stroke="#1F3D3D" stroke-width="0.960938"/>
<path d="M12.0207 16.0763C13.6623 8.85964 24.354 8.86797 25.9873 16.0846C26.9457 20.318 24.3123 23.9013 22.004 26.118C20.329 27.7346 17.679 27.7346 15.9957 26.118C13.6957 23.9013 11.0623 20.3096 12.0207 16.0763Z" stroke="#1F3D3D" stroke-width="0.960938"/>
</g>
<defs>
<clipPath id="clip0_949_2988">
<rect x="9" y="9" width="20" height="20" rx="10" fill="white"/>
</clipPath>
</defs>
</svg>
