<svg width="17" height="18" viewBox="0 0 17 18" fill="none" xmlns="http://www.w3.org/2000/svg">
<path d="M13.1836 12.0417V5.44857C13.1836 4.68516 12.559 4.06055 11.7956 4.06055H7.97852" stroke="#1F3D3D" stroke-width="1.04102" stroke-linecap="round" stroke-linejoin="round"/>
<path d="M9.71875 2.32617L7.63672 4.0612L9.71875 5.79622" stroke="#1F3D3D" stroke-width="1.04102" stroke-linecap="round" stroke-linejoin="round"/>
<path d="M13.1836 16.2051C14.3335 16.2051 15.2656 15.2729 15.2656 14.123C15.2656 12.9732 14.3335 12.041 13.1836 12.041C12.0337 12.041 11.1016 12.9732 11.1016 14.123C11.1016 15.2729 12.0337 16.2051 13.1836 16.2051Z" stroke="#1F3D3D" stroke-width="1.04102" stroke-linecap="round" stroke-linejoin="round"/>
<path d="M3.47266 6.49023V13.0833C3.47266 13.8467 4.09727 14.4714 4.86068 14.4714H8.67773" stroke="#1F3D3D" stroke-width="1.04102" stroke-linecap="round" stroke-linejoin="round"/>
<path d="M6.9375 16.2064L9.01953 14.4714L6.9375 12.7363" stroke="#1F3D3D" stroke-width="1.04102" stroke-linecap="round" stroke-linejoin="round"/>
<path d="M3.47266 6.49023C4.62253 6.49023 5.55469 5.55808 5.55469 4.4082C5.55469 3.25833 4.62253 2.32617 3.47266 2.32617C2.32278 2.32617 1.39062 3.25833 1.39062 4.4082C1.39062 5.55808 2.32278 6.49023 3.47266 6.49023Z" stroke="#1F3D3D" stroke-width="1.04102" stroke-linecap="round" stroke-linejoin="round"/>
</svg>
