<svg width="19" height="19" viewBox="0 0 19 19" xmlns="http://www.w3.org/2000/svg">
<path d="M7.25566 17.2584H11.8074C15.6005 17.2584 17.1177 15.7411 17.1177 11.948V7.39628C17.1177 3.60318 15.6005 2.08594 11.8074 2.08594H7.25566C3.46255 2.08594 1.94531 3.60318 1.94531 7.39628V11.948C1.94531 15.7411 3.46255 17.2584 7.25566 17.2584Z" stroke="#1F3D3D" stroke-width="1.13793" stroke-linecap="round" stroke-linejoin="round"/>
<path d="M12.2402 14.6032V11.6445" stroke="#1F3D3D" stroke-width="1.13793" stroke-miterlimit="10" stroke-linecap="round" stroke-linejoin="round"/>
<path d="M12.2402 6.21954V4.74023" stroke="#1F3D3D" stroke-width="1.13793" stroke-miterlimit="10" stroke-linecap="round" stroke-linejoin="round"/>
<path d="M12.24 10.1636C13.3293 10.1636 14.2124 9.2805 14.2124 8.19116C14.2124 7.10183 13.3293 6.21875 12.24 6.21875C11.1507 6.21875 10.2676 7.10183 10.2676 8.19116C10.2676 9.2805 11.1507 10.1636 12.24 10.1636Z" stroke="#1F3D3D" stroke-width="1.13793" stroke-miterlimit="10" stroke-linecap="round" stroke-linejoin="round"/>
<path d="M6.82227 14.6043V13.125" stroke="#1F3D3D" stroke-width="1.13793" stroke-miterlimit="10" stroke-linecap="round" stroke-linejoin="round"/>
<path d="M6.82227 7.69886V4.74023" stroke="#1F3D3D" stroke-width="1.13793" stroke-miterlimit="10" stroke-linecap="round" stroke-linejoin="round"/>
<path d="M6.82202 13.1226C7.91136 13.1226 8.79444 12.2395 8.79444 11.1501C8.79444 10.0608 7.91136 9.17773 6.82202 9.17773C5.73269 9.17773 4.84961 10.0608 4.84961 11.1501C4.84961 12.2395 5.73269 13.1226 6.82202 13.1226Z" stroke="#1F3D3D" stroke-width="1.13793" stroke-miterlimit="10" stroke-linecap="round" stroke-linejoin="round"/>
</svg>
