<svg width="448" height="123" viewBox="0 0 448 123" fill="none" xmlns="http://www.w3.org/2000/svg">
<path d="M8.62128 112L42.6644 36.8258H53.2962L87.4468 112H76.1707L45.7788 42.8397H50.0745L19.6826 112H8.62128ZM23.1192 93.2064L26.0187 84.6151H68.3311L71.4454 93.2064H23.1192ZM121.213 72.3725H159.982V81.6081H121.213V72.3725ZM122.287 112H111.548V36.8258H164.599V46.1689H122.287V112ZM202.376 69.2581H241.037V78.3864H202.376V69.2581ZM203.343 102.657H247.158V112H192.603V36.8258H245.655V46.1689H203.343V102.657Z" fill="#1A674E"/>
<path d="M375.025 112.17V36.9957H404.343C410.93 36.9957 416.55 38.0338 421.203 40.1101C425.857 42.1863 429.437 45.1933 431.943 49.131C434.448 53.0687 435.701 57.7581 435.701 63.1993C435.701 68.6405 434.448 73.3299 431.943 77.2676C429.437 81.1337 425.857 84.1407 421.203 86.2885C416.55 88.3648 410.93 89.4029 404.343 89.4029H380.931L385.764 84.3555V112.17H375.025ZM385.764 85.4294L380.931 80.0598H404.021C410.894 80.0598 416.084 78.5921 419.592 75.6567C423.172 72.7214 424.962 68.5689 424.962 63.1993C424.962 57.8297 423.172 53.6772 419.592 50.7419C416.084 47.8065 410.894 46.3388 404.021 46.3388H380.931L385.764 40.9692V85.4294Z" fill="#1A674E"/>
<path d="M310.22 32.2876C306.898 32.629 302.569 33.6067 299.604 34.6776C297.137 35.5932 293.117 37.5642 291.332 38.7437C287.996 40.9785 285.202 43.5236 282.843 46.4879C277.256 53.5182 274.292 60.8278 273.501 69.5808C273.206 72.8864 273.392 77.0766 273.997 80.2116C274.261 81.5618 274.944 83.8121 275.192 84.1225C275.27 84.2466 275.704 84.3242 276.248 84.3242C277.117 84.3242 277.163 84.3087 277.086 83.9673C277.039 83.781 276.775 82.5705 276.48 81.2979C275.642 77.6509 275.549 76.8128 275.565 72.995C275.58 68.8669 275.891 66.3372 276.868 62.597C278.669 55.7064 281.462 50.7091 286.304 45.6498C289.222 42.608 291.395 40.9474 295.104 38.9609C303.112 34.6465 312.253 33.2653 321.161 34.988C325.817 35.9036 331.466 38.4488 335.206 41.3199C340.731 45.5412 344.005 49.5141 346.892 55.4581C347.839 57.4135 349.22 61.0451 349.422 62.0538C349.468 62.3487 349.561 62.597 349.608 62.597C349.856 62.597 351.346 61.4175 351.346 61.2158C351.346 60.7502 350.555 58.4068 349.732 56.3892C348.754 54.0458 347.202 51.2368 345.387 48.5519C343.928 46.4103 340.591 42.8563 338.077 40.7922C332.537 36.2606 325.987 33.405 318.786 32.4273C317.188 32.1945 311.865 32.1169 310.22 32.2876Z" fill="#1A674E" stroke="#1A674E" stroke-width="4.55905"/>
<path d="M306.587 18.061C307.579 18.5059 310.438 19.5427 311.28 19.8275C311.544 19.0557 311.835 18.061 312.329 16.2687C311.101 15.8114 309.485 15.2725 307.579 14.6803C307.329 15.8114 306.79 17.4281 306.587 18.061Z" fill="#1A674E"/>
<path d="M305.495 21.0929C305.271 22.0763 305.101 22.9163 305.114 22.9446C305.171 23.0722 309.746 24.3818 309.888 24.3187C310.029 24.2556 310.693 22.0065 310.822 21.1508L310.884 20.6812L308.585 19.9043C307.311 19.486 306.186 19.1716 306.087 19.2157C305.987 19.2599 305.72 20.1094 305.495 21.0929Z" fill="#1A674E"/>
<path d="M312.6 19.9324C314.331 20.6611 315.948 21.2 317.281 21.3649C317.693 19.9324 318.104 19.0444 318.255 17.7542C317.026 17.4277 315.409 16.8888 313.798 16.29C313.254 17.9666 313.254 17.9666 312.6 19.9324Z" fill="#1A674E"/>
<path d="M312.007 21.3211C311.957 21.5133 311.747 22.3376 311.53 23.1477L311.11 24.6087L313.405 25.3368C314.658 25.7472 315.77 26.0333 315.855 25.9954C316.04 25.9133 316.71 23.8313 316.865 22.8448L316.951 22.3137L316.259 22.0951C314.992 21.691 312.33 20.9395 312.212 20.9412C312.135 20.9586 312.051 21.1146 312.007 21.3211Z" fill="#1A674E"/>
<path d="M319.285 18.8962C319.18 19.3847 318.955 20.2153 318.793 20.7291C318.623 21.2634 318.511 21.7378 318.543 21.8087C318.568 21.8654 318.767 21.9298 318.989 21.9329C319.191 21.928 320.124 22.1921 321.055 22.4909C321.98 22.7755 322.865 23.0444 323.024 23.0585C323.238 23.082 323.428 22.7084 323.881 21.2836C324.204 20.2906 324.451 19.4333 324.425 19.3766C324.362 19.2348 319.754 17.889 319.598 17.9584C319.541 17.9836 319.396 18.4218 319.285 18.8962Z" fill="#1A674E"/>
<path d="M317.6 24.4556C317.406 25.3918 317.264 26.2191 317.296 26.29C317.372 26.4602 321.455 27.7339 321.736 27.6769C321.862 27.6548 322.002 27.3206 322.054 26.9409C322.16 26.2648 322.25 25.9701 322.706 24.6288L322.922 24.0062L321.426 23.5849C319.539 23.0488 318.124 22.6936 318.039 22.7315C317.996 22.7504 317.802 23.5337 317.6 24.4556Z" fill="#1A674E"/>
<path d="M329.699 18.4394C329.542 18.8492 329.558 19.1139 329.779 19.6101L330.056 20.234L328.843 20.0268C328.181 19.9137 327.558 19.8511 327.445 19.9016C327.346 19.9458 327.102 20.581 326.902 21.3154C326.703 22.0499 326.449 22.7402 326.341 22.8395C326.216 22.9799 325.879 22.9092 325.26 22.6244C324.388 22.231 324.367 22.2231 324.01 22.6031C323.251 23.4167 323.485 23.9413 324.854 24.5376L325.72 24.9168L325.501 25.6087C325.242 26.4377 325.261 26.4803 325.838 26.784C326.082 26.9131 326.291 27.0406 326.304 27.0689C326.31 27.0831 325.855 27.3198 325.274 27.5786C324.367 27.9825 324.137 28.1529 323.482 28.9711C322.474 30.2182 322.534 30.4293 324.132 30.89C324.818 31.0944 326.528 31.692 327.956 32.2284C329.609 32.8514 330.583 33.1312 330.63 33.0083C330.772 32.6394 330.275 29.7687 329.92 28.8566C329.713 28.3541 329.574 27.8893 329.598 27.8278C329.622 27.7664 329.946 27.8087 330.343 27.9377C330.734 28.0524 331.12 28.1184 331.22 28.0742C331.319 28.03 331.441 27.6186 331.504 27.149C331.658 26.1972 331.574 26.2004 332.97 27.1591C333.367 27.4409 333.741 27.6313 333.811 27.5998C333.868 27.5745 334.04 27.1584 334.18 26.6714C334.411 25.855 334.401 25.7573 334.049 25.3872C333.778 25.0833 333.532 24.9889 333.031 25.0081C332.669 25.0336 332.338 24.9771 332.306 24.9062C332.275 24.8353 332.508 24.1371 332.806 23.3585C333.126 22.5877 333.344 21.8958 333.319 21.8391C333.288 21.7682 332.868 21.5132 332.392 21.2835C331.916 21.0537 331.509 20.8271 331.491 20.7845C331.472 20.742 331.62 20.5402 331.802 20.34C332.29 19.8338 332.356 19.2949 332.047 18.6002C331.712 17.8488 331.183 17.5749 330.458 17.7787C330.001 17.8971 329.864 18.0091 329.699 18.4394Z" fill="#1A674E"/>
<path d="M335.681 24.5951C335.376 25.5124 335.153 26.3083 335.178 26.365C335.229 26.4784 336.767 27.0337 339.259 27.8609L340.156 28.1581L340.651 26.4087C340.917 25.441 341.121 24.6026 341.124 24.5332C341.114 24.4355 336.44 22.8644 336.298 22.9275C336.27 22.9402 335.993 23.692 335.681 24.5951Z" fill="#1A674E"/>
<path d="M334.606 28.0121C334.512 28.4109 334.265 29.2682 334.077 29.9129C333.874 30.5638 333.735 31.169 333.773 31.254C333.811 31.3391 334.159 31.4728 334.552 31.5529C334.924 31.6251 335.986 31.9506 336.897 32.2416C337.8 32.553 338.568 32.7888 338.596 32.7762C338.653 32.751 339.497 29.8778 339.643 29.2521C339.704 28.97 339.473 28.8693 337.719 28.3253C336.636 27.9919 335.52 27.6223 335.254 27.5201L334.784 27.3045L334.606 28.0121Z" fill="#1A674E"/>
<path d="M342.217 25.0962C342.058 25.3879 341.298 27.9521 341.246 28.3319C341.233 28.4564 341.345 28.5934 341.489 28.6485C341.626 28.6894 342.68 29.0353 343.802 29.4191L345.856 30.1016L346.23 29.1874C346.433 28.6894 346.699 27.8745 346.833 27.3733L347.069 26.4529L344.936 25.6696C342.49 24.7541 342.394 24.729 342.217 25.0962Z" fill="#1A674E"/>
<path d="M340.543 30.0713C340.487 30.4022 340.305 31.061 340.158 31.5338C340.006 31.9925 339.875 32.5772 339.879 32.8135C339.874 33.2232 339.928 33.2673 340.84 33.5236C341.368 33.6792 342.402 34.0173 343.127 34.2721C343.859 34.5411 344.517 34.7235 344.588 34.6919C344.71 34.6209 345.423 32.0267 345.527 31.2672C345.571 30.9079 345.517 30.8638 345.036 30.738C344.727 30.6547 343.712 30.3591 342.781 30.0604C341.835 29.7679 340.978 29.521 340.868 29.5022C340.743 29.4897 340.614 29.734 340.543 30.0713Z" fill="#1A674E"/>
<path d="M347.721 28.4777C347.408 29.4155 347.184 30.2461 347.209 30.3028C347.278 30.4587 351.951 31.9117 352.156 31.8375C352.397 31.7302 353.301 28.4567 353.136 28.2756C353.043 28.1811 352.099 27.854 351.043 27.5427C349.98 27.2172 348.987 26.8948 348.817 26.8177C348.655 26.7201 348.469 26.684 348.412 26.7093C348.341 26.7408 348.034 27.5399 347.721 28.4777Z" fill="#1A674E"/>
<path d="M346.307 34.0577L345.752 35.9017L347.054 36.3074C347.78 36.5275 348.937 36.9128 349.607 37.1582L350.852 37.5891L351.299 35.9973C352.031 33.4457 352.076 33.6978 350.964 33.377C350.429 33.2419 349.354 32.888 348.547 32.6018C347.746 32.3297 347.046 32.1316 346.99 32.1569C346.933 32.1821 346.623 33.0506 346.307 34.0577Z" fill="#1A674E"/>
<path d="M345.813 47.3059C345.636 47.5056 345.83 48.8355 346.057 48.9795C346.156 49.0606 346.695 49.143 347.246 49.194C352.408 49.5714 355.112 52.1962 354.303 56.0826C354.011 57.5522 353.514 58.4964 352.045 60.478C349.599 63.7552 346.593 66.5882 342.251 69.7066C339.606 71.6088 336.768 73.394 335.407 74.0307C334.697 74.3595 333.424 74.9722 332.585 75.3746C331.746 75.777 330.541 76.3071 329.898 76.5534C329.256 76.7997 328.367 77.1616 327.932 77.3568C325.669 78.3718 322.493 79.6603 319.19 80.9007C317.394 81.581 315.057 82.3154 313.238 82.7705C312.188 83.0423 310.095 83.6311 308.592 84.0697C304.058 85.4184 303.734 85.5115 301.446 86.1348C296.295 87.5301 292.188 88.457 286.026 89.6048C283.244 90.1261 276.984 90.7531 275.069 90.7024C273.214 90.6457 270.955 90.1897 270.085 89.6855C268.991 89.0523 268.502 88.4039 268.327 87.4207C268.212 86.7198 268.224 86.385 268.452 85.7861C268.843 84.7008 270.446 82.8422 272.088 81.5255C273.617 80.2959 273.667 80.1848 273.165 79.2648C272.922 78.804 272.842 78.7665 272.491 78.8926C271.568 79.2125 268.816 81.7017 267.749 83.1579C266.177 85.3317 265.762 87.8445 266.744 89.4744C267.276 90.3915 268.783 91.514 270.269 92.1232C271.251 92.5403 271.775 92.6243 274.035 92.792C276.402 92.9642 276.962 92.9536 279.664 92.683C287.436 91.8741 298.5 89.4166 309.697 86.0208C311.757 85.39 314.716 84.5174 316.247 84.0609C319.811 83.0065 323.057 81.8172 326.265 80.3891C327.658 79.7645 330.13 78.7133 331.746 78.0511C337.73 75.5869 340.663 73.8377 345.311 69.9912C350.267 65.8866 352.608 63.5295 354.248 60.985C356.229 57.906 356.765 56.2908 356.553 54.0228C356.345 51.9514 355.575 50.6186 353.753 49.2244C352.522 48.2865 350.938 47.6113 349.378 47.3278C348.144 47.1179 345.96 47.1093 345.813 47.3059Z" fill="#1A674E" stroke="#1A674E" stroke-width="4.4836"/>
<path d="M351.875 72.142C351.611 72.2661 351.332 72.4523 351.239 72.561C351.145 72.6696 351.037 74.0353 350.99 75.7114C350.928 77.3254 350.788 79.2809 350.649 80.0569C349.795 84.8679 347.747 89.6634 344.627 94.1019C343.153 96.1816 339.909 99.5337 337.38 101.551C335.471 103.072 332.165 105.276 330.427 106.176C327.323 107.79 321.984 109.466 318.368 109.947C317.608 110.056 315.544 110.149 313.79 110.149C310.019 110.165 307.505 109.823 303.997 108.83C301.235 108.054 299.605 107.433 296.827 106.067C292.854 104.127 290.263 102.203 286.6 98.4939C284.21 96.0729 282.86 94.5055 281.867 92.9845C281.494 92.3948 281.091 91.9292 280.967 91.9292C280.516 91.9292 279.492 92.4258 279.492 92.6431C279.492 94.0709 284.707 100.17 288.571 103.274C290.759 105.043 293.755 106.983 296.051 108.132C298.845 109.528 303.346 111.096 306.263 111.701C309.74 112.415 315.451 112.524 319.191 111.965C330.411 110.273 340.856 103.491 347.188 93.7916C350.835 88.2356 352.527 83.4246 353.132 76.953C353.582 72.0799 353.427 71.4591 351.875 72.142Z" fill="#1A674E" stroke="#1A674E" stroke-width="4.55905"/>
<path d="M307.947 48.7337C307.922 48.7587 307.135 48.8712 306.209 48.9838C303.484 49.3214 302.321 49.5589 301.421 49.9715L300.571 50.3466L299.608 50.1465C299.07 50.0215 298.57 49.934 298.495 49.934C298.42 49.934 298.145 50.2216 297.895 50.5591C297.645 50.9092 297.107 51.4469 296.695 51.7469C296.107 52.2095 295.957 52.3971 295.894 52.7847C295.844 53.0347 295.732 53.5348 295.632 53.8849C295.457 54.5226 295.444 54.5351 294.369 55.0977C293.106 55.7479 293.006 55.8479 291.468 57.9109L290.331 59.4612V61.4742C290.331 63.3872 290.306 63.5372 290.006 64.1873C289.781 64.6625 289.655 65.1751 289.618 65.8502L289.543 66.8255L290.481 67.7882C291.068 68.3883 291.581 69.051 291.831 69.5636C292.294 70.4763 293.056 71.239 294.544 72.2767C295.669 73.0519 295.969 73.0894 297.657 72.6768C298.595 72.4393 298.783 72.4268 299.22 72.5643C299.683 72.7143 299.808 72.7018 300.871 72.3393C301.508 72.1267 302.396 71.9142 302.846 71.8641L303.671 71.7891L304.134 72.4143C304.484 72.8894 304.734 73.1019 305.184 73.252C305.509 73.377 305.934 73.527 306.134 73.6021C306.572 73.7646 306.96 74.3647 306.96 74.9024C306.96 75.1149 306.847 75.6525 306.709 76.0901C306.334 77.3029 306.347 77.3779 307.397 78.6282C307.91 79.2534 308.547 80.1786 308.822 80.6912C309.31 81.6289 310.21 84.142 310.21 84.5796C310.21 84.7047 309.923 85.4173 309.573 86.155C308.272 88.9181 308.272 89.0557 309.585 91.9939C309.923 92.7565 310.485 94.1694 310.848 95.1321C311.198 96.0948 311.761 97.3576 312.098 97.9203C312.686 98.9205 312.711 99.008 312.711 99.8957C312.711 100.733 312.736 100.846 313.086 101.234C313.299 101.471 313.611 101.696 313.811 101.734C314.261 101.834 316.587 101.396 318.112 100.933C319.162 100.621 319.412 100.483 320.025 99.9207C320.638 99.3581 321.525 98.2953 322.438 97.045C322.613 96.8075 322.713 96.4824 322.713 96.1823C322.713 95.5947 322.913 95.3697 323.939 94.8195C325.439 94.0193 325.701 93.4067 325.214 91.7813C325.026 91.1687 324.964 90.7061 325.014 90.481C325.151 89.9434 326.514 88.7056 327.864 87.9054C328.527 87.5178 329.24 87.0427 329.452 86.8677C329.827 86.5551 329.827 86.5426 329.827 85.3423C329.827 84.6671 329.865 84.0295 329.902 83.917C329.99 83.7044 329.802 83.3043 329.277 82.5792C328.94 82.1165 328.877 81.5539 329.102 80.7662C329.215 80.3411 329.202 80.2536 328.965 80.0036L328.702 79.7285L329.09 78.9908C329.69 77.8906 330.365 77.2029 332.278 75.7401C333.728 74.6398 334.141 74.2522 334.741 73.427C335.641 72.1642 336.654 70.1262 336.929 69.0385C337.229 67.8632 337.129 67.7882 335.879 68.2258C335.341 68.4133 334.453 68.6759 333.903 68.8009C331.69 69.326 331.453 69.276 331.703 68.4383C331.828 68.0007 331.828 67.8757 331.665 67.6256C331.403 67.2256 330.177 66.3003 329.377 65.8877L328.715 65.5627V64.6249V63.6872H328.365C327.839 63.6872 327.627 63.4622 327.277 62.5245C326.677 60.9116 325.401 58.5985 323.638 55.9229C323.063 55.0602 322.876 54.4976 323.363 55.1352C323.776 55.6728 324.001 55.8104 324.176 55.6603C324.476 55.4228 324.364 54.6601 323.926 53.9349L323.513 53.2473L322.688 53.2848C322.113 53.3223 321.625 53.2473 321.025 53.0722C320.088 52.7722 319.6 52.8347 319.012 53.2973C318.825 53.4473 318.587 53.5598 318.475 53.5598C318.187 53.5598 316.762 52.8722 316.637 52.6721C316.487 52.4221 314.399 53.3723 314.386 54.31L314.274 54.5889L317.337 54.7976C319.6 55.1352 308.635 53.3723 310.248 55.1352C311.536 51.2468 309.893 53.0597 310.248 55.1352C310.248 55.1352 311.387 54.0642 310.187 55.502C310.187 55.502 302.971 61.6242 301.421 64.6249C300.446 66.5254 310.474 54.8143 310.187 55.502C310.187 55.502 302.946 55.3666 305.184 67.582C304.872 67.582 313.636 84.167 312.811 82.4416C310.373 77.3654 309.573 75.64 309.198 74.6523C308.873 73.8271 309.76 73.3145 309.198 72.6768C307.722 70.9764 305.734 69.4886 305.184 67.4381C304.834 66.1253 304.847 63.7622 305.197 62.3869C305.522 61.1741 306.197 59.7738 306.947 58.7736C307.597 57.9109 312.075 59.4917 310.187 55.502C311.112 54.9394 312.573 54.7976 313.574 54.6976C314.349 54.6226 314.399 54.6101 314.386 54.31C314.374 54.135 314.336 53.6224 314.324 53.1723L314.274 52.3471L313.974 52.5721C313.499 52.9472 312.836 52.8847 312.136 52.3846C311.086 51.6469 310.623 51.4343 309.673 51.2968L308.747 51.1593L308.81 49.9215L308.872 48.6837H308.435C308.197 48.6837 307.972 48.7087 307.947 48.7337Z" fill="#1A674E"/>
<path d="M334.586 86.043C334.419 86.2581 334.18 86.6165 334.049 86.8554C333.75 87.4409 333.368 87.7754 332.746 88.0024C332.077 88.2294 331.898 88.3847 331.695 88.8746C331.564 89.1972 331.564 89.3883 331.683 89.9738L331.827 90.6667L331.301 91.3477C330.572 92.2916 330.405 93.5939 330.919 94.1793C331.265 94.5855 332.137 94.3824 332.699 93.7731C332.842 93.6297 333.451 92.423 334.049 91.1088C334.646 89.7945 335.267 88.4684 335.423 88.1697C335.96 87.1541 335.745 85.6846 335.04 85.6726C334.969 85.6726 334.766 85.8399 334.586 86.043Z" fill="#1A674E"/>
</svg>
