<svg width="430" height="115" viewBox="0 0 430 115" fill="none" xmlns="http://www.w3.org/2000/svg">
<path d="M1.99606 104.17L36.5762 28.9957H42.0532L76.6333 104.17H70.7268L38.0797 32.4323H40.4423L7.9026 104.17H1.99606ZM14.6683 83.0138L16.4939 78.3959H61.4911L63.3167 83.0138H14.6683ZM108 66.0459H148.702V70.9859H108V66.0459ZM108.644 104.17H103.167V28.9957H153.427V33.9357H108.644V104.17ZM188.636 63.5759H229.338V68.4085H188.636V63.5759ZM189.28 99.2299H235.674V104.17H183.804V28.9957H234.063V33.9357H189.28V99.2299Z" fill="white"/>
<path d="M359.218 104.17V28.9957H386.173C392.473 28.9957 397.879 29.998 402.389 32.0027C406.9 34.0073 410.372 36.9069 412.806 40.7014C415.24 44.4243 416.457 48.9706 416.457 54.3402C416.457 59.5666 415.24 64.077 412.806 67.8715C410.372 71.666 406.9 74.5656 402.389 76.5703C397.879 78.5749 392.473 79.5772 386.173 79.5772H362.225L364.695 76.9998V104.17H359.218ZM364.695 77.322L362.225 74.6372H386.173C394.263 74.6372 400.384 72.8831 404.537 69.375C408.761 65.7953 410.873 60.7837 410.873 54.3402C410.873 47.8251 408.761 42.8135 404.537 39.3053C400.384 35.7256 394.263 33.9357 386.173 33.9357H362.225L364.695 31.2509V77.322Z" fill="white"/>
<path d="M294.185 29.9574C291.103 30.2741 287.086 31.1813 284.335 32.1749C282.046 33.0244 278.316 34.8531 276.661 35.9475C273.565 38.021 270.973 40.3825 268.784 43.1327C263.6 49.6556 260.85 56.4377 260.116 64.5589C259.842 67.626 260.015 71.5138 260.577 74.4225C260.821 75.6752 261.455 77.7631 261.685 78.0511C261.757 78.1663 262.16 78.2383 262.664 78.2383C263.471 78.2383 263.514 78.2239 263.442 77.9071C263.399 77.7343 263.154 76.6112 262.88 75.4304C262.103 72.0466 262.016 71.269 262.031 67.7268C262.045 63.8966 262.333 61.5495 263.24 58.0792C264.911 51.6859 267.503 47.0494 271.995 42.3552C274.702 39.5329 276.718 37.9922 280.16 36.1491C287.59 32.1461 296.071 30.8645 304.336 32.4628C308.656 33.3124 313.897 35.6739 317.367 38.3378C322.494 42.2544 325.532 45.9406 328.21 51.4555C329.089 53.2699 330.37 56.6393 330.557 57.5753C330.6 57.8488 330.687 58.0792 330.73 58.0792C330.96 58.0792 332.343 56.9849 332.343 56.7977C332.343 56.3657 331.608 54.1914 330.845 52.3195C329.938 50.1452 328.498 47.5389 326.813 45.0478C325.46 43.0607 322.364 39.7633 320.031 37.8482C314.891 33.6436 308.814 30.9941 302.133 30.0869C300.65 29.871 295.711 29.799 294.185 29.9574Z" fill="white" stroke="white" stroke-width="2.225"/>
<path d="M290.811 16.7561C291.732 17.1689 294.384 18.131 295.166 18.3951C295.411 17.679 295.681 16.7561 296.139 15.0932C295 14.6689 293.5 14.1689 291.732 13.6195C291.5 14.6689 291 16.1689 290.811 16.7561Z" fill="white"/>
<path d="M289.8 19.5701C289.592 20.4826 289.434 21.2619 289.446 21.2882C289.499 21.4066 293.744 22.6217 293.875 22.5631C294.007 22.5046 294.622 20.4179 294.742 19.6239L294.8 19.1882L292.666 18.4673C291.485 18.0792 290.441 17.7875 290.349 17.8285C290.257 17.8695 290.008 18.6577 289.8 19.5701Z" fill="white"/>
<path d="M296.393 18.4919C298 19.168 299.5 19.668 300.736 19.8209C301.119 18.4919 301.5 17.668 301.64 16.4708C300.5 16.168 299 15.668 297.505 15.1124C297 16.668 297 16.668 296.393 18.4919Z" fill="white"/>
<path d="M295.841 19.7809C295.795 19.9593 295.599 20.724 295.398 21.4756L295.008 22.8312L297.138 23.5067C298.3 23.8876 299.332 24.153 299.411 24.1178C299.582 24.0417 300.204 22.1099 300.348 21.1946L300.428 20.7019L299.786 20.4991C298.61 20.1241 296.141 19.4269 296.031 19.4284C295.959 19.4445 295.882 19.5893 295.841 19.7809Z" fill="white"/>
<path d="M302.596 17.5318C302.499 17.9851 302.29 18.7557 302.14 19.2325C301.982 19.7282 301.879 20.1683 301.908 20.2341C301.931 20.2867 302.116 20.3465 302.322 20.3493C302.509 20.3448 303.375 20.5899 304.239 20.8671C305.097 21.1312 305.918 21.3806 306.065 21.3937C306.264 21.4155 306.441 21.0689 306.861 19.7469C307.16 18.8256 307.389 18.0302 307.366 17.9775C307.307 17.846 303.031 16.5973 302.887 16.6617C302.834 16.6851 302.7 17.0917 302.596 17.5318Z" fill="white"/>
<path d="M301.032 22.6893C300.851 23.5578 300.72 24.3255 300.75 24.3912C300.82 24.5491 304.609 25.7309 304.869 25.6781C304.986 25.6575 305.116 25.3475 305.164 24.9951C305.263 24.3678 305.346 24.0944 305.769 22.8499L305.969 22.2723L304.581 21.8814C302.831 21.3839 301.518 21.0544 301.439 21.0895C301.399 21.1071 301.219 21.8338 301.032 22.6893Z" fill="white"/>
<path d="M312.258 17.107C312.112 17.4872 312.127 17.7328 312.332 18.1932L312.589 18.772L311.463 18.5797C310.849 18.4749 310.272 18.4168 310.167 18.4636C310.074 18.5046 309.848 19.094 309.663 19.7754C309.478 20.4568 309.243 21.0973 309.142 21.1895C309.027 21.3197 308.714 21.2541 308.139 20.9899C307.33 20.6249 307.311 20.6176 306.979 20.9702C306.275 21.725 306.492 22.2118 307.763 22.765L308.566 23.1169L308.363 23.7588C308.122 24.528 308.14 24.5675 308.675 24.8493C308.902 24.969 309.096 25.0873 309.108 25.1136C309.114 25.1268 308.691 25.3464 308.152 25.5865C307.31 25.9613 307.097 26.1194 306.489 26.8786C305.554 28.0356 305.61 28.2315 307.093 28.6589C307.729 28.8486 309.315 29.4031 310.64 29.9008C312.174 30.4787 313.078 30.7384 313.122 30.6243C313.253 30.2821 312.792 27.6186 312.463 26.7723C312.271 26.306 312.142 25.8748 312.164 25.8178C312.186 25.7608 312.487 25.8 312.856 25.9197C313.218 26.0262 313.577 26.0873 313.669 26.0463C313.761 26.0053 313.875 25.6237 313.933 25.188C314.075 24.3048 313.998 24.3078 315.292 25.1973C315.661 25.4588 316.008 25.6354 316.073 25.6062C316.126 25.5827 316.285 25.1967 316.415 24.7448C316.629 23.9873 316.621 23.8967 316.294 23.5533C316.043 23.2713 315.815 23.1837 315.35 23.2016C315.013 23.2252 314.706 23.1728 314.677 23.107C314.648 23.0412 314.864 22.3934 315.141 21.671C315.437 20.9559 315.64 20.3139 315.617 20.2613C315.587 20.1955 315.198 19.9589 314.757 19.7457C314.315 19.5326 313.938 19.3223 313.92 19.2828C313.903 19.2434 314.04 19.0561 314.209 18.8703C314.662 18.4007 314.723 17.9007 314.436 17.2561C314.126 16.5589 313.635 16.3049 312.962 16.4939C312.538 16.6038 312.411 16.7077 312.258 17.107Z" fill="white"/>
<path d="M317.807 22.8178C317.524 23.6689 317.317 24.4074 317.34 24.46C317.387 24.5652 318.815 25.0804 321.127 25.8479L321.959 26.1237L322.418 24.5005C322.665 23.6027 322.854 22.8248 322.857 22.7604C322.848 22.6698 318.511 21.2121 318.379 21.2706C318.353 21.2824 318.096 21.9799 317.807 22.8178Z" fill="white"/>
<path d="M316.809 25.9886C316.721 26.3586 316.492 27.1541 316.317 27.7522C316.129 28.3561 316.001 28.9176 316.036 28.9965C316.071 29.0755 316.394 29.1995 316.758 29.2738C317.103 29.3409 318.089 29.6429 318.934 29.9128C319.772 30.2017 320.484 30.4206 320.51 30.4088C320.563 30.3854 321.346 27.7196 321.482 27.1391C321.539 26.8774 321.324 26.7839 319.696 26.2791C318.692 25.9699 317.656 25.627 317.409 25.5321L316.973 25.3321L316.809 25.9886Z" fill="white"/>
<path d="M323.873 23.2835C323.726 23.5541 323.019 25.9332 322.971 26.2856C322.96 26.4011 323.064 26.5283 323.197 26.5793C323.324 26.6173 324.302 26.9383 325.344 27.2943L327.249 27.9276L327.596 27.0794C327.785 26.6173 328.031 25.8612 328.155 25.3962L328.374 24.5423L326.395 23.8155C324.126 22.9661 324.037 22.9427 323.873 23.2835Z" fill="white"/>
<path d="M322.319 27.8998C322.267 28.2069 322.097 28.8181 321.962 29.2568C321.82 29.6824 321.699 30.2249 321.702 30.4442C321.698 30.8243 321.748 30.8652 322.595 31.103C323.084 31.2474 324.044 31.5611 324.716 31.7975C325.395 32.0471 326.006 32.2163 326.072 32.187C326.184 32.1211 326.847 29.7142 326.943 29.0094C326.983 28.676 326.934 28.6351 326.488 28.5185C326.201 28.4412 325.259 28.1669 324.395 27.8897C323.518 27.6183 322.722 27.3893 322.62 27.3718C322.504 27.3602 322.385 27.5869 322.319 27.8998Z" fill="white"/>
<path d="M328.98 26.4205C328.69 27.2906 328.481 28.0612 328.504 28.1138C328.569 28.2585 332.905 29.6066 333.095 29.5378C333.318 29.4382 334.157 26.401 334.003 26.233C333.917 26.1453 333.041 25.8418 332.061 25.553C331.076 25.251 330.155 24.9518 329.997 24.8803C329.846 24.7898 329.673 24.7563 329.621 24.7797C329.555 24.809 329.27 25.5504 328.98 26.4205Z" fill="white"/>
<path d="M327.666 31.5991L327.151 33.31L328.359 33.6864C329.033 33.8907 330.106 34.2482 330.728 34.4758L331.883 34.8757L332.297 33.3988C332.977 31.0313 333.018 31.2652 331.987 30.9676C331.49 30.8422 330.493 30.5139 329.744 30.2483C329.001 29.9958 328.352 29.8121 328.299 29.8355C328.247 29.8589 327.959 30.6647 327.666 31.5991Z" fill="white"/>
<path d="M327.212 43.8904C327.047 44.0757 327.227 45.3096 327.438 45.4433C327.529 45.5185 328.029 45.595 328.541 45.6422C333.33 45.9924 335.839 48.4278 335.089 52.0336C334.817 53.3972 334.357 54.2732 332.993 56.1118C330.724 59.1525 327.935 61.781 323.906 64.6743C321.452 66.4393 318.819 68.0957 317.556 68.6864C316.897 68.9915 315.716 69.5599 314.938 69.9333C314.159 70.3067 313.041 70.7985 312.445 71.027C311.849 71.2555 311.025 71.5913 310.621 71.7724C308.521 72.7142 305.574 73.9096 302.51 75.0605C300.843 75.6917 298.675 76.3731 296.987 76.7954C296.014 77.0476 294.071 77.5939 292.677 78.0008C288.47 79.2521 288.169 79.3385 286.047 79.9169C281.267 81.2115 277.457 82.0714 271.74 83.1364C269.158 83.6201 263.35 84.2018 261.573 84.1548C259.852 84.1022 257.756 83.6791 256.949 83.2113C255.934 82.6238 255.48 82.0222 255.318 81.11C255.211 80.4596 255.222 80.149 255.433 79.5933C255.797 78.5863 257.284 76.8619 258.807 75.6403C260.226 74.4994 260.272 74.3963 259.807 73.5427C259.581 73.1152 259.507 73.0803 259.182 73.1974C258.325 73.4942 255.771 75.8037 254.781 77.1548C253.323 79.1717 252.938 81.5031 253.849 83.0155C254.342 83.8663 255.741 84.9078 257.12 85.473C258.031 85.8601 258.517 85.938 260.614 86.0936C262.81 86.2534 263.33 86.2436 265.837 85.9924C273.048 85.242 283.313 82.9618 293.702 79.8111C295.613 79.2259 298.359 78.4162 299.78 77.9926C303.086 77.0144 306.098 75.9109 309.074 74.5859C310.366 74.0063 312.66 73.031 314.16 72.4166C319.712 70.1302 322.433 68.5073 326.746 64.9385C331.344 61.13 333.516 58.9431 335.038 56.5822C336.876 53.7255 337.373 52.2269 337.176 50.1225C336.984 48.2006 336.269 46.964 334.578 45.6705C333.436 44.8002 331.966 44.1737 330.519 43.9108C329.375 43.716 327.348 43.708 327.212 43.8904Z" fill="white" stroke="white" stroke-width="2.16276"/>
<path d="M332.834 66.9344C332.589 67.0496 332.33 67.2224 332.244 67.3232C332.157 67.424 332.057 68.6911 332.013 70.2462C331.956 71.7438 331.826 73.5581 331.697 74.278C330.905 78.7418 329.004 83.1912 326.11 87.3094C324.742 89.2389 321.732 92.3492 319.385 94.2211C317.614 95.6322 314.547 97.6769 312.934 98.5121C310.055 100.01 305.101 101.565 301.746 102.011C301.041 102.112 299.125 102.198 297.498 102.198C293.999 102.213 291.667 101.896 288.412 100.974C285.849 100.254 284.337 99.6784 281.76 98.4113C278.074 96.6114 275.669 94.8259 272.271 91.3844C270.053 89.1381 268.8 87.6838 267.879 86.2727C267.533 85.7255 267.159 85.2935 267.044 85.2935C266.626 85.2935 265.676 85.7543 265.676 85.9559C265.676 87.2806 270.514 92.9396 274.099 95.8194C276.13 97.4609 278.909 99.2609 281.04 100.326C283.632 101.622 287.808 103.077 290.515 103.638C293.74 104.301 299.039 104.401 302.509 103.883C312.92 102.314 322.611 96.021 328.486 87.0214C331.869 81.8665 333.439 77.4027 334.001 71.3982C334.418 66.8768 334.274 66.3008 332.834 66.9344Z" fill="white" stroke="white" stroke-width="2.225"/>
<path d="M292.076 45.2162C292.053 45.2394 291.322 45.3438 290.464 45.4483C287.935 45.7615 286.856 45.9819 286.021 46.3647L285.232 46.7127L284.338 46.5271C283.84 46.4111 283.376 46.3299 283.306 46.3299C283.236 46.3299 282.981 46.5967 282.749 46.9099C282.517 47.2347 282.018 47.7336 281.636 48.012C281.09 48.4412 280.951 48.6152 280.893 48.9748C280.847 49.2068 280.742 49.6709 280.649 49.9957C280.487 50.5873 280.475 50.5989 279.478 51.1209C278.306 51.7241 278.213 51.817 276.786 53.731L275.731 55.1695V57.0372C275.731 58.8121 275.708 58.9513 275.429 59.5545C275.22 59.9953 275.104 60.471 275.07 61.0974L275 62.0022L275.87 62.8955C276.415 63.4523 276.891 64.0671 277.123 64.5427C277.552 65.3896 278.26 66.0972 279.64 67.0601C280.684 67.7793 280.963 67.8141 282.529 67.4313C283.399 67.2109 283.573 67.1993 283.979 67.3269C284.408 67.4661 284.524 67.4545 285.51 67.1181C286.102 66.9209 286.925 66.7236 287.343 66.6772L288.109 66.6076L288.538 67.1877C288.863 67.6285 289.095 67.8257 289.512 67.9649C289.814 68.0809 290.208 68.2201 290.394 68.2897C290.8 68.4405 291.16 68.9974 291.16 69.4962C291.16 69.6934 291.055 70.1922 290.928 70.5982C290.58 71.7235 290.591 71.7931 291.566 72.9531C292.041 73.5332 292.633 74.3916 292.888 74.8672C293.34 75.7373 294.176 78.069 294.176 78.475C294.176 78.591 293.909 79.2522 293.584 79.9367C292.378 82.5004 292.378 82.628 293.596 85.3541C293.909 86.0617 294.431 87.3726 294.767 88.2659C295.092 89.1591 295.614 90.3307 295.927 90.8528C296.473 91.7808 296.496 91.862 296.496 92.6857C296.496 93.4629 296.519 93.5673 296.844 93.9269C297.041 94.1473 297.331 94.3561 297.517 94.3909C297.934 94.4837 300.092 94.0777 301.507 93.6485C302.482 93.3585 302.714 93.2309 303.282 92.7089C303.851 92.1868 304.674 91.2008 305.521 90.0407C305.683 89.8203 305.776 89.5187 305.776 89.2403C305.776 88.6951 305.962 88.4863 306.913 87.9758C308.305 87.2334 308.549 86.665 308.096 85.1569C307.922 84.5885 307.864 84.1593 307.911 83.9504C308.038 83.4516 309.303 82.3032 310.556 81.5607C311.17 81.2011 311.832 80.7603 312.029 80.5979C312.377 80.3079 312.377 80.2963 312.377 79.1826C312.377 78.5562 312.412 77.9646 312.447 77.8602C312.528 77.663 312.354 77.2917 311.867 76.6189C311.553 76.1897 311.495 75.6677 311.704 74.9368C311.809 74.5424 311.797 74.4612 311.576 74.2292L311.333 73.974L311.693 73.2896C312.249 72.2687 312.876 71.6307 314.651 70.2734C315.996 69.2526 316.379 68.8929 316.936 68.1273C317.771 66.9557 318.711 65.0648 318.966 64.0555C319.244 62.9651 319.152 62.8955 317.992 63.3015C317.493 63.4755 316.669 63.7191 316.159 63.8351C314.105 64.3223 313.885 64.2759 314.117 63.4987C314.233 63.0927 314.233 62.9767 314.082 62.7447C313.839 62.3734 312.702 61.515 311.959 61.1322L311.344 60.8306V59.9605V59.0905H311.02C310.532 59.0905 310.335 58.8817 310.01 58.0116C309.454 56.5152 308.27 54.3691 306.635 51.8866C306.101 51.0861 305.927 50.5641 306.379 51.1557C306.762 51.6545 306.971 51.7822 307.133 51.6429C307.412 51.4225 307.307 50.7149 306.901 50.0421L306.519 49.404L305.753 49.4388C305.219 49.4736 304.767 49.404 304.21 49.2416C303.34 48.9632 302.888 49.0212 302.342 49.4504C302.168 49.5897 301.948 49.6941 301.844 49.6941C301.577 49.6941 300.254 49.056 300.138 48.8704C299.999 48.6384 298.062 49.52 298.05 50.3901L297.946 50.6489L300.788 50.8425C302.888 51.1557 292.714 49.52 294.21 51.1557C293.881 49.23 295.405 47.548 294.21 51.1557C294.21 51.1557 295.268 50.162 294.154 51.496C294.154 51.496 287.459 57.1764 286.021 59.9605C285.116 61.7238 294.421 50.858 294.154 51.496C294.154 51.496 287.436 51.3704 289.512 62.7041C289.222 62.7041 297.354 78.0922 296.589 76.4913C294.327 71.7815 293.584 70.1806 293.236 69.2642C292.934 68.4985 293.758 68.0229 293.236 67.4313C291.867 65.8536 290.023 64.4731 289.512 62.5707C289.187 61.3526 289.199 59.1601 289.524 57.884C289.825 56.7588 290.452 55.4595 291.148 54.5315C291.751 53.731 295.906 55.1978 294.154 51.496C295.012 50.974 296.368 50.8425 297.296 50.7497C298.015 50.6801 298.062 50.6685 298.05 50.3901C298.039 50.2277 298.004 49.7521 297.992 49.3344L297.946 48.5688L297.667 48.7776C297.227 49.1256 296.612 49.0676 295.962 48.6036C294.988 47.9192 294.559 47.722 293.677 47.5944L292.818 47.4668L292.876 46.3183L292.934 45.1698H292.528C292.308 45.1698 292.099 45.193 292.076 45.2162Z" fill="white"/>
<path d="M316.792 79.833C316.637 80.0325 316.416 80.3651 316.294 80.5868C316.016 81.13 315.662 81.4404 315.085 81.651C314.465 81.8616 314.298 82.0057 314.11 82.4602C313.988 82.7595 313.988 82.9369 314.099 83.48L314.232 84.123L313.744 84.7548C313.068 85.6306 312.913 86.8389 313.389 87.382C313.711 87.7589 314.52 87.5705 315.041 87.0051C315.174 86.8721 315.739 85.7525 316.294 84.5331C316.848 83.3138 317.424 82.0833 317.568 81.8062C318.067 80.8639 317.868 79.5004 317.214 79.4894C317.147 79.4894 316.959 79.6446 316.792 79.833Z" fill="white"/>
</svg>
